<svg id="b93a2e28-ead7-4142-91d6-5bf45b902ef6" data-name="Capa 1" xmlns="http://www.w3.org/2000/svg" viewBox="0 0 512 512"><defs><style>.aa64b365-7026-4347-93ec-d6e6ad749f12{fill:#fff;}</style></defs><path class="aa64b365-7026-4347-93ec-d6e6ad749f12" d="M161.72,274.36s-18.29-29.26-14-80A59.8,59.8,0,0,1,152,176.7c5.64-13.75,18.51-38.24,41.07-46.53,0,0,18.56-10.32,66.88-19.43l107.38-23.4s15.66-3.4,32.23-6c0,0,8-1.26,12.08,3.42,0,0,11.38,9,3.79,35-5.69,19.54-11.38,28.34-13.87,31.51-.75.95-1,1.58-2.1,2.95-2.64,3.26-9.1,13-33.46,26.17-.8.44-3.28,1.68-4.18,2.09-2,.91-8.43,4.2-45.11,12.91,0,0-28.08,6.41-50.56,11.06l-18.69,3.36-12,2.38s-8.69,1.57-25.07,8.2a88.16,88.16,0,0,0-20.74,11.86c-3.44,2.64-7.45,5.94-11.71,9.88,0,0-2,.49-11.34,15.92a41,41,0,0,0-3.62,10.3A48.34,48.34,0,0,1,161.72,274.36Z"/><path class="aa64b365-7026-4347-93ec-d6e6ad749f12" d="M164.89,406.79a145.66,145.66,0,0,1-7.16-26.9c-2-13.47-2.75-29.22-2.75-29.22s-.95-6.45,0-37.94c0,0,3.6-30.36,26-47.62,0,0,13.47-12.53,52.37-21.06l122-25.74s18.31-3.86,22.39,8.38c0,0,6.17,14.42,0,34.81,0,0-1,7.08-13.79,28.21S329.24,320,329.24,320s2.44.35-29.82,9.08c0,0,10.47-1.49-58.69,11.51,0,0-12.71,2.28-25.32,5.88s-27.23,13.66-27.23,13.66a70,70,0,0,0-15.27,18.5A153.8,153.8,0,0,0,167.59,394,72.45,72.45,0,0,0,164.89,406.79Z"/><path class="aa64b365-7026-4347-93ec-d6e6ad749f12" d="M175.26,422c.72-4.27,4.82-25.13,19.57-37.25a95.11,95.11,0,0,1,10.51-8.14,45.82,45.82,0,0,1,9.22-4.78c4.49-1.72,12.31-4.51,24-8a63.43,63.43,0,0,1,8.65-1.69,2.81,2.81,0,0,1,3.05,1.8c.8,2.13,1.7,5.09,2.84,17a164.52,164.52,0,0,1-.85,40.7c-3.23,21.06-21,35.67-21,35.67S217.35,471,203.57,470.37c-10.86-.48-17.73-8.3-21.9-16.69-1.25-2.51-5-11.42-5.91-15.91A51.07,51.07,0,0,1,175.26,422Z"/><polygon class="aa64b365-7026-4347-93ec-d6e6ad749f12" points="120.68 279.25 94.5 306.66 68.91 279.13 95.16 251.45 120.68 279.25"/><path class="aa64b365-7026-4347-93ec-d6e6ad749f12" d="M315.94,433s15.3-2.43,17.1-17.63a2.49,2.49,0,0,1,2.53-2.17c3.66.07,10.54,1,13,6.9,2.61,6.24-4.65,16.47-8.21,20.94a18.3,18.3,0,0,1-5.74,4.8,30.63,30.63,0,0,1-8.78,3,7.72,7.72,0,0,1-6.45-1.71,13.1,13.1,0,0,1-3.45-4.92C314.38,438.45,313.28,433.71,315.94,433Z"/><path class="aa64b365-7026-4347-93ec-d6e6ad749f12" d="M218.58,60.46s10.44-3.15,15.25-6.9a26.88,26.88,0,0,0,9-11.77l1.62-4,1.67-4.86,1.65,4.78,2,4.75s3,6.84,7.35,10.08a36.71,36.71,0,0,0,10.3,5.7l6.27,2.22-5.33,1.86s-7.49,2.64-11.54,6.31a27.8,27.8,0,0,0-6.91,9.54l-1,2.25-1.2,3.06-1.25,3.6-.3.91-.35-1.08-1.28-3.67s-1.58-4.09-2.42-5.72a25.06,25.06,0,0,0-8.31-10.23,39.19,39.19,0,0,0-9.4-4.81l-3.55-1.28Z"/></svg>